# xmcd
#
# Track frame offsets: 
#        150
#        23708
#        44379
#        69479
#        95868
#        118825
#        134782
#        158638
#        180631
#        199952
#
# Disc length: 3100 seconds
#
# Revision: 0
# Processed by: cddbd v1.5.2PL0 Copyright (c) Steve Scherf et al.
# Submitted via: ExactAudioCopy v1.0b6
#
DISCID=930c1a0a
DTITLE=Mike Onesko's Guitar Army - In The Name Of Rock N' Roll
DYEAR=2015
DGENRE=Blues-Rock
TTITLE0=The Destroyer
TTITLE1=In The Name Of Rock N' Roll
TTITLE2=Keeping The Flame Alive
TTITLE3=Nothing Can Hold Me Down
TTITLE4=Warzone (Dogs Of Doom)
TTITLE5=Good Times Bad Times
TTITLE6=Speed Freak
TTITLE7=Sacred Sun
TTITLE8=Can't Make You Love Me
TTITLE9=Child Of The Sky
EXTD=
EXTT0=
EXTT1=
EXTT2=
EXTT3=
EXTT4=
EXTT5=
EXTT6=
EXTT7=
EXTT8=
EXTT9=
PLAYORDER=
